<?xml version="1.0" encoding="UTF-8"?>
<svg xmlns="http://www.w3.org/2000/svg" xmlns:xlink="http://www.w3.org/1999/xlink" width="180px" height="181px" viewBox="0 0 180 180" version="1.1">
<g id="surface1">
<path style=" stroke:none;fill-rule:nonzero;fill:rgb(10.196078%,9.019608%,10.588235%);fill-opacity:1;" d="M 180 90.21875 C 180 139.476562 139.703125 179.414062 90 179.414062 C 40.296875 179.414062 0 139.476562 0 90.21875 C 0 40.957031 40.296875 1.023438 90 1.023438 C 139.703125 1.023438 180 40.957031 180 90.21875 Z M 180 90.21875 "/>
<path style=" stroke:none;fill-rule:nonzero;fill:rgb(100%,100%,100%);fill-opacity:1;" d="M 129.167969 33.980469 C 120.039062 34.300781 112.066406 39.285156 106.136719 46.183594 C 99.566406 53.75 95.195312 62.71875 92.050781 71.875 C 86.417969 67.300781 82.070312 61.378906 73.039062 58.796875 C 66.050781 56.808594 58.714844 57.632812 51.972656 62.613281 C 48.777344 64.976562 46.570312 68.554688 45.527344 71.914062 C 42.816406 80.652344 48.375 88.425781 50.902344 91.21875 L 56.421875 97.082031 C 57.5625 98.230469 60.304688 101.234375 58.964844 105.53125 C 57.515625 110.207031 51.828125 113.234375 45.992188 111.449219 C 43.386719 110.664062 39.640625 108.738281 40.480469 106.03125 C 40.828125 104.921875 41.628906 104.09375 42.058594 103.136719 C 42.453125 102.3125 42.636719 101.695312 42.757812 101.332031 C 43.820312 97.886719 42.367188 93.398438 38.640625 92.257812 C 35.160156 91.199219 31.601562 92.035156 30.222656 96.476562 C 28.660156 101.515625 31.09375 110.667969 44.132812 114.652344 C 59.410156 119.304688 72.335938 111.058594 74.167969 100.304688 C 75.320312 93.570312 72.253906 88.570312 66.632812 82.132812 L 62.054688 77.113281 C 59.277344 74.367188 58.324219 69.6875 61.195312 66.085938 C 63.617188 63.050781 67.070312 61.757812 72.722656 63.277344 C 80.972656 65.5 84.648438 71.171875 90.789062 75.75 C 88.253906 83.984375 86.597656 92.25 85.097656 99.660156 L 84.183594 105.1875 C 79.796875 127.988281 76.449219 140.507812 67.75 147.699219 C 65.996094 148.933594 63.488281 150.785156 59.710938 150.910156 C 57.734375 150.972656 57.09375 149.621094 57.066406 149.035156 C 57.019531 147.65625 58.191406 147.027344 58.96875 146.402344 C 60.132812 145.777344 61.890625 144.734375 61.769531 141.394531 C 61.644531 137.449219 58.34375 134.023438 53.574219 134.179688 C 50.003906 134.304688 44.5625 137.632812 44.765625 143.730469 C 44.980469 150.03125 50.902344 154.75 59.832031 154.453125 C 64.605469 154.289062 75.265625 152.363281 85.773438 139.984375 C 98 125.796875 101.421875 109.53125 103.996094 97.625 L 106.867188 81.910156 C 108.464844 82.097656 110.167969 82.222656 112.023438 82.265625 C 127.253906 82.585938 134.875 74.765625 134.984375 69.082031 C 135.058594 65.640625 132.707031 62.253906 129.410156 62.328125 C 127.050781 62.394531 124.085938 63.949219 123.378906 67.183594 C 122.679688 70.359375 128.226562 73.21875 123.894531 76 C 120.8125 77.972656 115.296875 79.363281 107.53125 78.230469 L 108.945312 70.496094 C 111.828125 55.824219 115.382812 37.777344 128.871094 37.339844 C 129.851562 37.289062 133.453125 37.382812 133.535156 39.738281 C 133.558594 40.527344 133.363281 40.730469 132.433594 42.53125 C 131.484375 43.9375 131.128906 45.132812 131.171875 46.507812 C 131.300781 50.253906 134.175781 52.71875 138.332031 52.566406 C 143.902344 52.386719 145.5 47.019531 145.410156 44.261719 C 145.183594 37.78125 138.292969 33.6875 129.167969 33.980469 Z M 129.167969 33.980469 "/>
</g>
</svg>
